<svg width="36" height="36" viewBox="0 0 36 36" fill="none" xmlns="http://www.w3.org/2000/svg">
<path fill-rule="evenodd" clip-rule="evenodd" d="M32 18C32 24.6274 26.6274 30 20 30C13.3726 30 8 24.6274 8 18C8 11.3726 13.3726 6 20 6C26.6274 6 32 11.3726 32 18ZM14.6464 12.6464C14.8417 12.4512 15.1583 12.4512 15.3536 12.6464L19.5 16.7929L23.8388 12.4541C24.0341 12.2588 24.3507 12.2588 24.5459 12.4541C24.7412 12.6493 24.7412 12.9659 24.5459 13.1612L20.2071 17.5L24.5459 21.8388C24.7412 22.0341 24.7412 22.3507 24.5459 22.5459C24.3507 22.7412 24.0341 22.7412 23.8388 22.5459L19.5 18.2071L15.3536 22.3536C15.1583 22.5488 14.8417 22.5488 14.6464 22.3536C14.4512 22.1583 14.4512 21.8417 14.6464 21.6464L18.7929 17.5L14.6464 13.3536C14.4512 13.1583 14.4512 12.8417 14.6464 12.6464Z" fill="#ABABAB"/>
</svg>
